<svg id="svg" version="1.1" xmlns="http://www.w3.org/2000/svg" xmlns:xlink="http://www.w3.org/1999/xlink" width="400" height="400" viewBox="0, 0, 400,400"><g id="svgg"><path id="path0" d="M80.852 50.243 C 80.450 50.702,79.732 50.833,78.156 50.734 C 76.701 50.643,75.946 50.761,75.816 51.100 C 75.711 51.375,75.090 51.600,74.436 51.600 C 73.782 51.600,73.136 51.780,73.000 52.000 C 72.864 52.220,72.313 52.400,71.776 52.400 C 71.239 52.400,70.800 52.580,70.800 52.800 C 70.800 53.020,70.535 53.200,70.212 53.200 C 69.528 53.200,66.063 55.059,64.248 56.400 C 59.780 59.701,53.200 67.928,53.200 70.212 C 53.200 70.535,53.020 70.800,52.800 70.800 C 52.580 70.800,52.400 71.250,52.400 71.800 C 52.400 72.350,52.220 72.800,52.000 72.800 C 51.780 72.800,51.600 73.436,51.600 74.213 C 51.600 74.989,51.375 75.711,51.100 75.816 C 50.762 75.946,50.643 76.698,50.733 78.142 C 50.830 79.693,50.694 80.449,50.233 80.909 C 49.669 81.474,49.600 84.323,49.600 107.171 L 49.600 132.800 200.000 132.800 L 350.400 132.800 350.400 107.171 C 350.400 84.323,350.331 81.474,349.767 80.909 C 349.306 80.449,349.170 79.693,349.267 78.142 C 349.357 76.698,349.238 75.946,348.900 75.816 C 348.625 75.711,348.400 74.989,348.400 74.213 C 348.400 73.436,348.220 72.800,348.000 72.800 C 347.780 72.800,347.600 72.350,347.600 71.800 C 347.600 71.250,347.420 70.800,347.200 70.800 C 346.980 70.800,346.800 70.535,346.800 70.212 C 346.800 69.537,344.989 66.151,343.600 64.230 C 342.821 63.153,336.847 57.179,335.770 56.400 C 333.849 55.011,330.463 53.200,329.788 53.200 C 329.465 53.200,329.200 53.020,329.200 52.800 C 329.200 52.580,328.730 52.400,328.157 52.400 C 327.225 52.400,327.140 52.282,327.362 51.300 C 327.564 50.409,327.530 50.333,327.186 50.900 C 326.702 51.695,324.554 51.862,324.308 51.124 C 324.205 50.814,323.372 50.683,321.930 50.750 C 320.341 50.824,319.532 50.675,319.084 50.226 C 317.335 48.478,317.205 49.230,317.165 61.333 C 317.095 82.061,316.777 86.985,315.302 90.121 C 309.120 103.266,291.048 103.292,284.783 90.165 C 283.237 86.925,283.190 86.340,282.862 66.000 L 282.600 49.800 200.000 49.800 L 117.400 49.800 117.133 66.600 C 116.810 86.991,116.783 87.343,115.304 90.503 C 109.352 103.222,90.929 103.246,84.802 90.542 C 83.231 87.286,83.196 86.842,82.864 66.205 C 82.586 48.953,82.510 48.350,80.852 50.243 M49.692 141.500 L 49.800 149.800 200.000 149.800 L 350.200 149.800 350.308 141.500 L 350.416 133.200 200.000 133.200 L 49.584 133.200 49.692 141.500 " stroke="none" fill="#db4838" fill-rule="evenodd"></path><path id="path1" d="M95.600 16.400 C 95.270 16.613,94.595 16.791,94.100 16.794 C 93.605 16.797,93.200 16.944,93.200 17.120 C 93.200 17.295,92.570 17.667,91.800 17.946 C 91.030 18.224,90.400 18.620,90.400 18.826 C 90.400 19.032,90.130 19.200,89.800 19.200 C 89.470 19.200,89.200 19.350,89.200 19.532 C 89.200 19.715,88.785 20.087,88.279 20.358 C 87.772 20.629,86.919 21.560,86.384 22.425 C 85.849 23.291,85.274 24.000,85.106 24.000 C 84.938 24.000,84.800 24.360,84.800 24.800 C 84.800 25.240,84.620 25.600,84.400 25.600 C 84.180 25.600,84.000 25.960,84.000 26.400 C 84.000 26.840,83.820 27.200,83.600 27.200 C 83.380 27.200,83.200 27.909,83.200 28.776 C 83.200 29.643,83.020 30.464,82.800 30.600 C 82.083 31.043,82.276 49.467,83.000 49.745 C 83.521 49.945,83.601 52.337,83.604 67.887 C 83.608 82.097,83.725 86.182,84.169 87.647 C 87.817 99.665,102.489 103.812,111.157 95.277 C 116.363 90.150,116.400 89.960,116.400 68.061 C 116.400 52.353,116.479 49.945,117.000 49.745 C 117.725 49.467,117.917 30.643,117.200 30.200 C 116.980 30.064,116.800 29.333,116.800 28.576 C 116.800 27.819,116.620 27.200,116.400 27.200 C 116.180 27.200,116.000 26.840,116.000 26.400 C 116.000 25.960,115.820 25.600,115.600 25.600 C 115.380 25.600,115.200 25.240,115.200 24.800 C 115.200 24.360,115.050 24.000,114.868 24.000 C 114.685 24.000,114.280 23.506,113.968 22.903 C 113.279 21.572,110.991 19.200,110.397 19.200 C 110.160 19.200,109.580 18.840,109.108 18.400 C 108.636 17.960,107.923 17.600,107.525 17.600 C 107.126 17.600,106.800 17.420,106.800 17.200 C 106.800 16.980,106.361 16.800,105.824 16.800 C 105.287 16.800,104.736 16.620,104.600 16.400 C 104.282 15.885,96.397 15.885,95.600 16.400 M295.600 16.375 C 295.600 16.609,294.970 16.800,294.200 16.800 C 293.430 16.800,292.800 16.980,292.800 17.200 C 292.800 17.420,292.440 17.600,292.000 17.600 C 291.560 17.600,291.200 17.780,291.200 18.000 C 291.200 18.220,290.954 18.400,290.654 18.400 C 290.353 18.400,289.138 19.351,287.954 20.513 C 285.954 22.475,285.338 23.284,284.462 25.100 C 284.277 25.485,283.917 26.203,283.662 26.695 C 283.408 27.187,283.200 28.121,283.200 28.771 C 283.200 29.421,283.020 30.064,282.800 30.200 C 282.083 30.643,282.275 49.467,283.000 49.745 C 283.521 49.945,283.600 52.335,283.600 67.893 C 283.600 84.593,283.652 85.955,284.371 87.922 C 289.760 102.665,307.856 103.917,314.727 90.021 L 316.200 87.043 316.312 68.504 C 316.407 52.628,316.508 49.934,317.012 49.740 C 317.726 49.466,317.907 30.637,317.200 30.200 C 316.980 30.064,316.800 29.333,316.800 28.576 C 316.800 27.819,316.620 27.200,316.400 27.200 C 316.180 27.200,315.996 26.795,315.991 26.300 C 315.986 25.805,315.630 24.950,315.200 24.400 C 314.770 23.850,314.414 23.261,314.409 23.091 C 314.392 22.506,310.016 18.400,309.409 18.400 C 309.074 18.400,308.800 18.220,308.800 18.000 C 308.800 17.780,308.440 17.600,308.000 17.600 C 307.560 17.600,307.200 17.440,307.200 17.244 C 307.200 16.717,304.741 16.344,299.900 16.135 C 297.015 16.011,295.600 16.090,295.600 16.375 M124.700 150.300 C 166.115 150.356,233.885 150.356,275.300 150.300 C 316.715 150.244,282.830 150.198,200.000 150.198 C 117.170 150.198,83.285 150.244,124.700 150.300 M83.680 183.680 C 82.991 184.369,82.991 215.631,83.680 216.320 C 84.369 217.009,115.631 217.009,116.320 216.320 C 117.009 215.631,117.009 184.369,116.320 183.680 C 115.631 182.991,84.369 182.991,83.680 183.680 M133.680 183.680 C 132.991 184.369,132.991 215.631,133.680 216.320 C 134.369 217.009,165.631 217.009,166.320 216.320 C 167.009 215.631,167.009 184.369,166.320 183.680 C 165.631 182.991,134.369 182.991,133.680 183.680 M183.680 183.680 C 182.991 184.369,182.991 215.631,183.680 216.320 C 184.369 217.009,215.631 217.009,216.320 216.320 C 217.009 215.631,217.009 184.369,216.320 183.680 C 215.631 182.991,184.369 182.991,183.680 183.680 M233.680 183.680 C 232.991 184.369,232.991 215.631,233.680 216.320 C 234.369 217.009,265.631 217.009,266.320 216.320 C 267.009 215.631,267.009 184.369,266.320 183.680 C 265.631 182.991,234.369 182.991,233.680 183.680 M283.680 183.680 C 282.991 184.369,282.991 215.631,283.680 216.320 C 284.369 217.009,315.631 217.009,316.320 216.320 C 317.009 215.631,317.009 184.369,316.320 183.680 C 315.631 182.991,284.369 182.991,283.680 183.680 M83.680 233.680 C 82.991 234.369,82.991 265.631,83.680 266.320 C 84.369 267.009,115.631 267.009,116.320 266.320 C 117.009 265.631,117.009 234.369,116.320 233.680 C 115.963 233.323,111.787 233.200,100.000 233.200 C 88.213 233.200,84.037 233.323,83.680 233.680 M133.680 233.680 C 132.991 234.369,132.991 265.631,133.680 266.320 C 134.369 267.009,165.631 267.009,166.320 266.320 C 167.009 265.631,167.009 234.369,166.320 233.680 C 165.963 233.323,161.787 233.200,150.000 233.200 C 138.213 233.200,134.037 233.323,133.680 233.680 M183.680 233.680 C 182.991 234.369,182.991 265.631,183.680 266.320 C 184.369 267.009,215.631 267.009,216.320 266.320 C 217.009 265.631,217.009 234.369,216.320 233.680 C 215.963 233.323,211.787 233.200,200.000 233.200 C 188.213 233.200,184.037 233.323,183.680 233.680 M233.680 233.680 C 232.991 234.369,232.991 265.631,233.680 266.320 C 234.369 267.009,265.631 267.009,266.320 266.320 C 267.009 265.631,267.009 234.369,266.320 233.680 C 265.963 233.323,261.787 233.200,250.000 233.200 C 238.213 233.200,234.037 233.323,233.680 233.680 M283.680 233.680 C 282.991 234.369,282.991 265.631,283.680 266.320 C 284.369 267.009,315.631 267.009,316.320 266.320 C 317.009 265.631,317.009 234.369,316.320 233.680 C 315.963 233.323,311.787 233.200,300.000 233.200 C 288.213 233.200,284.037 233.323,283.680 233.680 M83.680 283.680 C 82.991 284.369,82.991 315.631,83.680 316.320 C 84.369 317.009,115.631 317.009,116.320 316.320 C 117.009 315.631,117.009 284.369,116.320 283.680 C 115.963 283.323,111.787 283.200,100.000 283.200 C 88.213 283.200,84.037 283.323,83.680 283.680 M133.680 283.680 C 132.991 284.369,132.991 315.631,133.680 316.320 C 134.369 317.009,165.631 317.009,166.320 316.320 C 167.009 315.631,167.009 284.369,166.320 283.680 C 165.963 283.323,161.787 283.200,150.000 283.200 C 138.213 283.200,134.037 283.323,133.680 283.680 M183.680 283.680 C 182.991 284.369,182.991 315.631,183.680 316.320 C 184.369 317.009,215.631 317.009,216.320 316.320 C 217.009 315.631,217.009 284.369,216.320 283.680 C 215.963 283.323,211.787 283.200,200.000 283.200 C 188.213 283.200,184.037 283.323,183.680 283.680 M233.680 283.680 C 232.991 284.369,232.991 315.631,233.680 316.320 C 234.369 317.009,265.631 317.009,266.320 316.320 C 267.009 315.631,267.009 284.369,266.320 283.680 C 265.963 283.323,261.787 283.200,250.000 283.200 C 238.213 283.200,234.037 283.323,233.680 283.680 M283.680 283.680 C 282.991 284.369,282.991 315.631,283.680 316.320 C 284.369 317.009,315.631 317.009,316.320 316.320 C 317.009 315.631,317.009 284.369,316.320 283.680 C 315.963 283.323,311.787 283.200,300.000 283.200 C 288.213 283.200,284.037 283.323,283.680 283.680 M49.600 330.976 C 49.600 336.796,49.752 340.447,50.000 340.600 C 50.220 340.736,50.400 341.379,50.400 342.029 C 50.400 342.679,50.580 343.568,50.800 344.005 C 51.020 344.442,51.380 345.158,51.600 345.595 C 51.820 346.032,52.000 346.752,52.000 347.195 C 52.000 347.638,52.180 348.000,52.400 348.000 C 52.620 348.000,52.800 348.360,52.800 348.800 C 52.800 349.240,52.980 349.600,53.200 349.600 C 53.420 349.600,53.600 349.870,53.600 350.200 C 53.600 350.530,53.780 350.800,54.000 350.800 C 54.220 350.800,54.400 351.070,54.400 351.400 C 54.400 351.730,54.580 352.000,54.800 352.000 C 55.020 352.000,55.200 352.178,55.200 352.395 C 55.200 352.767,55.960 353.815,57.100 355.016 C 57.375 355.306,57.602 355.691,57.604 355.871 C 57.606 356.052,58.101 356.593,58.704 357.072 C 59.307 357.552,60.507 358.596,61.372 359.392 C 62.237 360.188,63.452 361.140,64.072 361.506 C 64.692 361.873,65.200 362.314,65.200 362.486 C 65.200 362.659,65.560 362.800,66.000 362.800 C 66.440 362.800,66.800 362.980,66.800 363.200 C 66.800 363.420,67.160 363.600,67.600 363.600 C 68.040 363.600,68.400 363.780,68.400 364.000 C 68.400 364.220,68.760 364.400,69.200 364.400 C 69.640 364.400,70.000 364.580,70.000 364.800 C 70.000 365.020,70.540 365.200,71.200 365.200 C 71.860 365.200,72.400 365.380,72.400 365.600 C 72.400 365.820,72.940 366.000,73.600 366.000 C 74.260 366.000,74.800 366.180,74.800 366.400 C 74.800 366.620,75.779 366.800,76.976 366.800 C 78.173 366.800,79.264 366.980,79.400 367.200 C 79.564 367.465,120.196 367.600,200.000 367.600 C 279.804 367.600,320.436 367.465,320.600 367.200 C 320.736 366.980,321.827 366.800,323.024 366.800 C 324.221 366.800,325.200 366.620,325.200 366.400 C 325.200 366.180,325.740 366.000,326.400 366.000 C 327.060 366.000,327.600 365.820,327.600 365.600 C 327.600 365.380,328.140 365.200,328.800 365.200 C 329.460 365.200,330.000 365.020,330.000 364.800 C 330.000 364.580,330.360 364.400,330.800 364.400 C 331.240 364.400,331.600 364.220,331.600 364.000 C 331.600 363.780,331.960 363.600,332.400 363.600 C 332.840 363.600,333.200 363.441,333.200 363.247 C 333.200 363.052,333.515 362.793,333.900 362.671 C 336.043 361.992,344.800 353.889,344.800 352.586 C 344.800 352.264,344.950 352.000,345.133 352.000 C 345.595 352.000,348.000 347.256,348.000 346.344 C 348.000 345.935,348.180 345.600,348.400 345.600 C 348.620 345.600,348.800 345.251,348.800 344.824 C 348.800 344.397,348.980 343.936,349.200 343.800 C 349.420 343.664,349.600 342.933,349.600 342.176 C 349.600 341.419,349.780 340.800,350.000 340.800 C 350.256 340.800,350.400 337.333,350.400 331.200 C 350.400 322.291,350.062 319.463,349.385 322.700 C 348.626 326.325,348.116 327.802,346.380 331.400 C 341.752 340.989,333.716 347.096,322.705 349.393 C 318.308 350.311,81.704 350.313,77.308 349.396 C 66.538 347.149,58.138 340.768,53.619 331.400 C 51.884 327.802,51.373 326.325,50.615 322.700 C 49.942 319.484,49.600 322.272,49.600 330.976 " stroke="none" fill="#bcc4c4" fill-rule="evenodd"></path><path id="path2" d="M49.600 235.829 C 49.600 311.232,49.670 321.328,50.200 321.857 C 50.530 322.187,50.800 322.865,50.800 323.363 C 50.800 331.673,61.491 344.101,71.886 347.874 C 78.117 350.136,69.874 349.999,200.000 349.999 C 328.284 349.999,321.708 350.095,327.505 348.152 C 338.126 344.593,349.200 331.940,349.200 323.363 C 349.200 322.865,349.470 322.187,349.800 321.857 C 350.330 321.328,350.400 311.232,350.400 235.829 L 350.400 150.400 200.000 150.400 L 49.600 150.400 49.600 235.829 M116.320 183.680 C 117.009 184.369,117.009 215.631,116.320 216.320 C 115.631 217.009,84.369 217.009,83.680 216.320 C 82.991 215.631,82.991 184.369,83.680 183.680 C 84.369 182.991,115.631 182.991,116.320 183.680 M166.320 183.680 C 167.009 184.369,167.009 215.631,166.320 216.320 C 165.631 217.009,134.369 217.009,133.680 216.320 C 132.991 215.631,132.991 184.369,133.680 183.680 C 134.369 182.991,165.631 182.991,166.320 183.680 M216.320 183.680 C 217.009 184.369,217.009 215.631,216.320 216.320 C 215.631 217.009,184.369 217.009,183.680 216.320 C 182.991 215.631,182.991 184.369,183.680 183.680 C 184.369 182.991,215.631 182.991,216.320 183.680 M266.320 183.680 C 267.009 184.369,267.009 215.631,266.320 216.320 C 265.631 217.009,234.369 217.009,233.680 216.320 C 232.991 215.631,232.991 184.369,233.680 183.680 C 234.369 182.991,265.631 182.991,266.320 183.680 M316.320 183.680 C 317.009 184.369,317.009 215.631,316.320 216.320 C 315.631 217.009,284.369 217.009,283.680 216.320 C 282.991 215.631,282.991 184.369,283.680 183.680 C 284.369 182.991,315.631 182.991,316.320 183.680 M116.320 233.680 C 117.009 234.369,117.009 265.631,116.320 266.320 C 115.631 267.009,84.369 267.009,83.680 266.320 C 82.991 265.631,82.991 234.369,83.680 233.680 C 84.037 233.323,88.213 233.200,100.000 233.200 C 111.787 233.200,115.963 233.323,116.320 233.680 M166.320 233.680 C 167.009 234.369,167.009 265.631,166.320 266.320 C 165.631 267.009,134.369 267.009,133.680 266.320 C 132.991 265.631,132.991 234.369,133.680 233.680 C 134.037 233.323,138.213 233.200,150.000 233.200 C 161.787 233.200,165.963 233.323,166.320 233.680 M216.320 233.680 C 217.009 234.369,217.009 265.631,216.320 266.320 C 215.631 267.009,184.369 267.009,183.680 266.320 C 182.991 265.631,182.991 234.369,183.680 233.680 C 184.037 233.323,188.213 233.200,200.000 233.200 C 211.787 233.200,215.963 233.323,216.320 233.680 M266.320 233.680 C 267.009 234.369,267.009 265.631,266.320 266.320 C 265.631 267.009,234.369 267.009,233.680 266.320 C 232.991 265.631,232.991 234.369,233.680 233.680 C 234.037 233.323,238.213 233.200,250.000 233.200 C 261.787 233.200,265.963 233.323,266.320 233.680 M316.320 233.680 C 317.009 234.369,317.009 265.631,316.320 266.320 C 315.631 267.009,284.369 267.009,283.680 266.320 C 282.991 265.631,282.991 234.369,283.680 233.680 C 284.037 233.323,288.213 233.200,300.000 233.200 C 311.787 233.200,315.963 233.323,316.320 233.680 M116.320 283.680 C 117.009 284.369,117.009 315.631,116.320 316.320 C 115.631 317.009,84.369 317.009,83.680 316.320 C 82.991 315.631,82.991 284.369,83.680 283.680 C 84.037 283.323,88.213 283.200,100.000 283.200 C 111.787 283.200,115.963 283.323,116.320 283.680 M166.320 283.680 C 167.009 284.369,167.009 315.631,166.320 316.320 C 165.631 317.009,134.369 317.009,133.680 316.320 C 132.991 315.631,132.991 284.369,133.680 283.680 C 134.037 283.323,138.213 283.200,150.000 283.200 C 161.787 283.200,165.963 283.323,166.320 283.680 M216.320 283.680 C 217.009 284.369,217.009 315.631,216.320 316.320 C 215.631 317.009,184.369 317.009,183.680 316.320 C 182.991 315.631,182.991 284.369,183.680 283.680 C 184.037 283.323,188.213 283.200,200.000 283.200 C 211.787 283.200,215.963 283.323,216.320 283.680 M266.320 283.680 C 267.009 284.369,267.009 315.631,266.320 316.320 C 265.631 317.009,234.369 317.009,233.680 316.320 C 232.991 315.631,232.991 284.369,233.680 283.680 C 234.037 283.323,238.213 283.200,250.000 283.200 C 261.787 283.200,265.963 283.323,266.320 283.680 M316.320 283.680 C 317.009 284.369,317.009 315.631,316.320 316.320 C 315.631 317.009,284.369 317.009,283.680 316.320 C 282.991 315.631,282.991 284.369,283.680 283.680 C 284.037 283.323,288.213 283.200,300.000 283.200 C 311.787 283.200,315.963 283.323,316.320 283.680 " stroke="none" fill="#ebf3f3" fill-rule="evenodd"></path><path id="path3" d="M78.800 49.975 C 78.800 50.181,78.215 50.422,77.500 50.511 C 76.481 50.637,76.604 50.686,78.067 50.736 C 79.094 50.771,80.219 50.691,80.567 50.557 C 81.612 50.156,81.282 49.600,80.000 49.600 C 79.340 49.600,78.800 49.769,78.800 49.975 M82.885 66.519 C 83.042 75.804,83.240 84.120,83.325 85.000 C 83.411 85.880,83.395 78.410,83.291 68.400 C 83.186 58.390,82.988 50.074,82.850 49.919 C 82.713 49.765,82.728 57.235,82.885 66.519 M117.020 50.100 C 116.935 50.375,116.787 58.790,116.692 68.800 C 116.597 78.810,116.589 86.280,116.675 85.400 C 116.867 83.444,117.445 49.599,117.287 49.600 C 117.226 49.600,117.105 49.825,117.020 50.100 M282.885 66.519 C 283.042 75.804,283.240 84.030,283.327 84.800 C 283.413 85.570,283.397 78.100,283.292 68.200 C 283.186 58.300,282.987 50.074,282.850 49.919 C 282.712 49.765,282.728 57.235,282.885 66.519 M317.042 50.043 C 316.945 50.349,316.787 58.700,316.691 68.600 C 316.595 78.500,316.587 85.970,316.673 85.200 C 316.856 83.573,317.467 49.877,317.319 49.643 C 317.264 49.556,317.139 49.736,317.042 50.043 M318.800 49.957 C 318.800 50.527,319.920 50.805,321.933 50.736 C 323.396 50.686,323.519 50.637,322.500 50.511 C 321.785 50.422,321.200 50.181,321.200 49.975 C 321.200 49.769,320.660 49.600,320.000 49.600 C 319.340 49.600,318.800 49.761,318.800 49.957 M74.800 50.800 C 74.800 51.020,74.260 51.200,73.600 51.200 C 72.940 51.200,72.400 51.380,72.400 51.600 C 72.400 51.820,71.860 52.000,71.200 52.000 C 70.540 52.000,70.000 52.180,70.000 52.400 C 70.000 52.620,69.730 52.800,69.400 52.800 C 69.070 52.800,68.800 52.980,68.800 53.200 C 68.800 53.420,68.429 53.600,67.976 53.600 C 67.456 53.600,67.258 53.430,67.438 53.138 C 67.615 52.852,67.548 52.785,67.262 52.962 C 67.008 53.119,66.800 53.507,66.800 53.824 C 66.800 54.141,66.530 54.400,66.200 54.400 C 65.870 54.400,65.600 54.580,65.600 54.800 C 65.600 55.020,65.330 55.200,65.000 55.200 C 64.670 55.200,64.400 55.380,64.400 55.600 C 64.400 55.820,64.218 56.000,63.995 56.000 C 63.513 56.000,56.000 63.442,56.000 63.919 C 56.000 64.101,55.676 64.598,55.280 65.025 C 54.884 65.451,54.435 66.126,54.283 66.525 C 54.130 66.924,53.841 67.149,53.640 67.025 C 53.439 66.901,53.369 67.159,53.484 67.599 C 53.601 68.047,53.496 68.400,53.247 68.400 C 53.001 68.400,52.800 68.760,52.800 69.200 C 52.800 69.640,52.620 70.000,52.400 70.000 C 52.180 70.000,52.000 70.540,52.000 71.200 C 52.000 71.860,51.820 72.400,51.600 72.400 C 51.380 72.400,51.200 72.940,51.200 73.600 C 51.200 74.260,51.020 74.800,50.800 74.800 C 50.580 74.800,50.400 75.085,50.400 75.433 C 50.400 76.725,51.405 75.685,51.524 74.269 C 51.592 73.461,51.817 72.800,52.024 72.800 C 52.231 72.800,52.400 72.350,52.400 71.800 C 52.400 71.250,52.580 70.800,52.800 70.800 C 53.020 70.800,53.200 70.535,53.200 70.212 C 53.200 67.928,59.780 59.701,64.248 56.400 C 66.063 55.059,69.528 53.200,70.212 53.200 C 70.535 53.200,70.800 53.020,70.800 52.800 C 70.800 52.580,71.214 52.400,71.720 52.400 C 72.226 52.400,72.811 52.234,73.020 52.031 C 73.229 51.828,73.926 51.603,74.569 51.531 C 75.785 51.395,76.545 50.400,75.433 50.400 C 75.085 50.400,74.800 50.580,74.800 50.800 M324.255 51.000 C 324.400 51.376,324.955 51.580,325.743 51.546 C 326.684 51.505,326.774 51.448,326.100 51.318 C 325.605 51.222,325.200 50.977,325.200 50.772 C 325.200 50.567,324.936 50.400,324.613 50.400 C 324.255 50.400,324.115 50.635,324.255 51.000 M327.200 51.800 C 327.200 52.173,327.578 52.400,328.200 52.400 C 328.750 52.400,329.200 52.580,329.200 52.800 C 329.200 53.020,329.465 53.200,329.788 53.200 C 330.463 53.200,333.849 55.011,335.770 56.400 C 336.847 57.179,342.821 63.153,343.600 64.230 C 344.989 66.151,346.800 69.537,346.800 70.212 C 346.800 70.535,346.980 70.800,347.200 70.800 C 347.420 70.800,347.600 71.250,347.600 71.800 C 347.600 72.350,347.769 72.800,347.976 72.800 C 348.183 72.800,348.408 73.461,348.476 74.269 C 348.595 75.685,349.600 76.725,349.600 75.433 C 349.600 75.085,349.420 74.800,349.200 74.800 C 348.980 74.800,348.800 74.260,348.800 73.600 C 348.800 72.940,348.620 72.400,348.400 72.400 C 348.180 72.400,348.000 71.950,348.000 71.400 C 348.000 70.850,347.820 70.400,347.600 70.400 C 347.380 70.400,347.200 70.051,347.200 69.624 C 347.200 69.197,347.004 68.726,346.765 68.578 C 346.526 68.431,346.416 67.983,346.520 67.585 C 346.650 67.087,346.536 66.927,346.155 67.073 C 345.790 67.213,345.600 66.997,345.600 66.443 C 345.600 65.979,345.420 65.600,345.200 65.600 C 344.980 65.600,344.800 65.330,344.800 65.000 C 344.800 64.670,344.620 64.400,344.400 64.400 C 344.180 64.400,344.000 64.130,344.000 63.800 C 344.000 63.470,343.801 63.200,343.557 63.200 C 343.314 63.200,343.222 62.921,343.353 62.579 C 343.488 62.227,343.422 62.063,343.199 62.200 C 342.984 62.334,341.411 61.038,339.703 59.321 C 337.995 57.605,336.104 55.945,335.499 55.632 C 334.895 55.320,334.400 54.915,334.400 54.732 C 334.400 54.550,334.130 54.400,333.800 54.400 C 333.470 54.400,333.200 54.147,333.200 53.837 C 333.200 53.472,332.920 53.348,332.400 53.484 C 331.953 53.601,331.600 53.496,331.600 53.247 C 331.600 53.001,331.240 52.800,330.800 52.800 C 330.360 52.800,330.000 52.620,330.000 52.400 C 330.000 52.180,329.449 52.000,328.776 52.000 C 328.063 52.000,327.656 51.833,327.800 51.600 C 327.936 51.380,327.857 51.200,327.624 51.200 C 327.391 51.200,327.200 51.470,327.200 51.800 M50.467 77.500 C 50.430 78.215,50.220 78.800,50.000 78.800 C 49.780 78.800,49.600 79.340,49.600 80.000 C 49.600 80.660,49.777 81.200,49.992 81.200 C 50.552 81.200,50.882 79.585,50.695 77.762 C 50.548 76.329,50.529 76.308,50.467 77.500 M349.264 78.067 C 349.229 79.094,349.309 80.219,349.443 80.567 C 349.844 81.612,350.400 81.282,350.400 80.000 C 350.400 79.340,350.231 78.800,350.025 78.800 C 349.819 78.800,349.578 78.215,349.489 77.500 C 349.363 76.481,349.314 76.604,349.264 78.067 M83.634 87.400 C 83.622 87.840,83.787 88.470,84.000 88.800 C 84.514 89.595,84.514 88.596,84.000 87.400 L 83.656 86.600 83.634 87.400 M283.612 87.200 C 283.612 87.530,283.787 88.070,284.000 88.400 C 284.345 88.933,284.388 88.933,284.388 88.400 C 284.388 88.070,284.213 87.530,284.000 87.200 C 283.655 86.667,283.612 86.667,283.612 87.200 M315.783 87.800 C 314.526 92.586,309.720 97.479,304.776 99.007 C 301.739 99.945,301.586 100.033,303.367 99.818 C 308.518 99.195,317.485 90.371,316.284 87.105 C 316.182 86.827,315.957 87.140,315.783 87.800 M115.837 88.000 C 114.310 93.289,109.515 97.822,103.600 99.568 L 102.200 99.982 103.775 99.759 C 108.899 99.033,117.395 90.720,116.298 87.505 C 116.203 87.227,115.995 87.450,115.837 88.000 M284.400 89.498 C 284.400 90.020,286.650 93.460,287.223 93.814 C 287.498 93.984,287.156 93.298,286.462 92.290 C 285.768 91.281,285.200 90.274,285.200 90.052 C 285.200 89.829,285.020 89.536,284.800 89.400 C 284.580 89.264,284.400 89.308,284.400 89.498 M85.225 91.400 C 85.129 93.638,92.486 99.229,96.222 99.758 L 97.800 99.982 96.400 99.553 C 92.014 98.209,88.328 95.552,85.920 92.000 C 85.547 91.450,85.234 91.180,85.225 91.400 M289.165 95.984 C 291.290 97.850,294.739 99.601,296.739 99.830 C 298.078 99.983,298.046 99.952,296.357 99.455 C 293.961 98.749,290.675 96.949,289.187 95.527 C 288.538 94.907,287.871 94.408,287.704 94.417 C 287.537 94.426,288.194 95.132,289.165 95.984 M124.700 133.100 C 166.115 133.156,233.885 133.156,275.300 133.100 C 316.715 133.044,282.830 132.998,200.000 132.998 C 117.170 132.998,83.285 133.044,124.700 133.100 " stroke="none" fill="#dc746c" fill-rule="evenodd"></path><path id="path4" d="M75.800 50.000 C 75.651 50.242,76.196 50.400,77.176 50.400 C 78.069 50.400,78.800 50.220,78.800 50.000 C 78.800 49.780,78.181 49.600,77.424 49.600 C 76.667 49.600,75.936 49.780,75.800 50.000 M83.200 61.120 L 83.399 72.600 83.506 61.426 C 83.565 55.281,83.475 50.115,83.306 49.946 C 83.138 49.777,83.090 54.805,83.200 61.120 M116.581 50.105 C 116.474 50.383,116.435 55.648,116.494 61.805 L 116.601 73.000 116.801 61.300 C 116.910 54.865,116.949 49.600,116.887 49.600 C 116.826 49.600,116.688 49.827,116.581 50.105 M283.200 61.120 L 283.399 72.600 283.506 61.426 C 283.565 55.281,283.475 50.115,283.306 49.946 C 283.138 49.777,283.090 54.805,283.200 61.120 M316.581 50.105 C 316.474 50.383,316.435 55.648,316.494 61.805 L 316.601 73.000 316.801 61.300 C 316.910 54.865,316.949 49.600,316.887 49.600 C 316.826 49.600,316.688 49.827,316.581 50.105 M321.200 50.000 C 321.200 50.220,321.965 50.397,322.900 50.394 C 324.145 50.389,324.439 50.284,324.000 50.000 C 323.210 49.490,321.200 49.490,321.200 50.000 M72.100 50.939 C 70.649 51.415,70.373 52.000,71.600 52.000 C 72.040 52.000,72.400 51.820,72.400 51.600 C 72.400 51.380,72.940 51.200,73.600 51.200 C 74.260 51.200,74.800 51.020,74.800 50.800 C 74.800 50.316,73.848 50.365,72.100 50.939 M325.200 50.800 C 325.200 51.020,325.650 51.200,326.200 51.200 C 326.750 51.200,327.200 51.020,327.200 50.800 C 327.200 50.580,326.750 50.400,326.200 50.400 C 325.650 50.400,325.200 50.580,325.200 50.800 M327.800 51.600 C 327.664 51.820,327.923 52.000,328.376 52.000 C 328.829 52.000,329.200 51.820,329.200 51.600 C 329.200 51.380,328.941 51.200,328.624 51.200 C 328.307 51.200,327.936 51.380,327.800 51.600 M68.000 52.800 L 67.000 53.582 67.900 53.591 C 68.395 53.596,68.800 53.420,68.800 53.200 C 68.800 52.980,69.070 52.800,69.400 52.800 C 69.730 52.800,70.000 52.620,70.000 52.400 C 70.000 51.766,69.088 51.949,68.000 52.800 M330.000 52.400 C 330.000 52.620,330.360 52.800,330.800 52.800 C 331.240 52.800,331.600 52.980,331.600 53.200 C 331.600 53.420,331.870 53.600,332.200 53.600 C 333.141 53.600,332.899 53.049,331.717 52.500 C 330.416 51.896,330.000 51.871,330.000 52.400 M64.400 54.732 C 64.400 54.915,63.918 55.320,63.329 55.632 C 62.740 55.945,60.895 57.563,59.229 59.229 C 57.563 60.895,55.945 62.740,55.632 63.329 C 55.320 63.918,54.915 64.400,54.732 64.400 C 54.550 64.400,54.400 64.670,54.400 65.000 C 54.400 65.946,55.012 65.702,55.632 64.509 C 56.299 63.228,63.402 56.000,63.995 56.000 C 64.218 56.000,64.400 55.820,64.400 55.600 C 64.400 55.380,64.670 55.200,65.000 55.200 C 65.330 55.200,65.600 55.020,65.600 54.800 C 65.600 54.580,65.330 54.400,65.000 54.400 C 64.670 54.400,64.400 54.550,64.400 54.732 M334.400 54.732 C 334.400 54.915,334.891 55.320,335.491 55.632 C 336.772 56.299,344.000 63.402,344.000 63.995 C 344.000 64.218,344.180 64.400,344.400 64.400 C 344.620 64.400,344.800 64.670,344.800 65.000 C 344.800 65.330,344.980 65.600,345.200 65.600 C 345.755 65.600,345.700 64.848,345.100 64.218 C 344.825 63.930,344.029 62.989,343.330 62.128 C 339.827 57.810,334.400 53.315,334.400 54.732 M53.600 66.600 C 53.600 66.930,53.420 67.200,53.200 67.200 C 52.980 67.200,52.800 67.470,52.800 67.800 C 52.800 68.625,53.452 68.556,53.754 67.700 C 53.889 67.315,54.105 66.775,54.234 66.500 C 54.362 66.225,54.272 66.000,54.033 66.000 C 53.795 66.000,53.600 66.270,53.600 66.600 M345.600 66.600 C 345.600 66.930,345.780 67.200,346.000 67.200 C 346.220 67.200,346.400 66.930,346.400 66.600 C 346.400 66.270,346.220 66.000,346.000 66.000 C 345.780 66.000,345.600 66.270,345.600 66.600 M346.597 67.605 C 346.439 67.861,346.510 68.270,346.755 68.515 C 347.000 68.760,347.200 69.284,347.200 69.680 C 347.200 70.076,347.380 70.400,347.600 70.400 C 348.163 70.400,348.097 69.478,347.442 68.216 C 347.079 67.517,346.783 67.303,346.597 67.605 M52.000 69.400 C 52.000 69.730,52.180 70.000,52.400 70.000 C 52.620 70.000,52.800 69.730,52.800 69.400 C 52.800 69.070,52.620 68.800,52.400 68.800 C 52.180 68.800,52.000 69.070,52.000 69.400 M51.200 71.600 C 51.200 72.040,51.380 72.400,51.600 72.400 C 51.820 72.400,52.000 72.040,52.000 71.600 C 52.000 71.160,51.820 70.800,51.600 70.800 C 51.380 70.800,51.200 71.160,51.200 71.600 M348.000 71.600 C 348.000 72.040,348.180 72.400,348.400 72.400 C 348.620 72.400,348.800 72.040,348.800 71.600 C 348.800 71.160,348.620 70.800,348.400 70.800 C 348.180 70.800,348.000 71.160,348.000 71.600 M50.667 73.067 C 50.252 73.482,50.353 74.800,50.800 74.800 C 51.020 74.800,51.200 74.350,51.200 73.800 C 51.200 72.753,51.108 72.626,50.667 73.067 M348.800 73.800 C 348.800 74.350,348.980 74.800,349.200 74.800 C 349.420 74.800,349.600 74.350,349.600 73.800 C 349.600 73.250,349.420 72.800,349.200 72.800 C 348.980 72.800,348.800 73.250,348.800 73.800 M349.606 77.100 C 349.603 78.035,349.780 78.800,350.000 78.800 C 350.510 78.800,350.510 76.790,350.000 76.000 C 349.716 75.561,349.611 75.855,349.606 77.100 M49.867 76.267 C 49.445 76.688,49.556 78.800,50.000 78.800 C 50.220 78.800,50.400 78.170,50.400 77.400 C 50.400 75.961,50.327 75.806,49.867 76.267 " stroke="none" fill="#ec867e" fill-rule="evenodd"></path></g></svg>