<svg xmlns="http://www.w3.org/2000/svg" id="Filled" height="512" viewBox="0 0 512 512" width="512"><path d="m24 136h464a0 0 0 0 1 0 0v304a0 0 0 0 1 0 0h-432a32 32 0 0 1 -32-32v-272a0 0 0 0 1 0 0z" fill="#2978b8"></path><path d="m56 168h400a0 0 0 0 1 0 0v240a0 0 0 0 1 0 0h-384a16 16 0 0 1 -16-16v-224a0 0 0 0 1 0 0z" fill="#6ed2f0"></path><path d="m88 72v304h-32a32 32 0 0 0 -32 32v-304a32 32 0 0 1 32-32z" fill="#3397e8"></path><path d="m456 232v-32h-80v-32h-32v96h-48v-96h-32v96h-44.8l-19.2-96h-48l9.6 48h-73.6v48h83.2l9.6 48h-92.8v32h99.2l12.8 64h48l-6.4-32h54.4v-32h-60.8l-6.4-32h115.2v96h32v-96h80v-48h-80v-32z" fill="#e9eef2"></path><circle cx="256" cy="288" fill="#88c791" r="120"></circle><path d="m272.92 270.98-.92 1.02" fill="#cfdb8c"></path><path d="m256 208a80 80 0 1 0 80 80 80.091 80.091 0 0 0 -80-80zm0 112a32 32 0 1 1 32-32 32.036 32.036 0 0 1 -32 32z" fill="#6a9c72"></path><path d="m376 288h-96a23.946 23.946 0 0 0 -7.08-17.02l64.23-71.37a119.659 119.659 0 0 1 38.85 88.39z" fill="#cfdb8c"></path><circle cx="328" cy="288" fill="#eb423f" r="16"></circle><circle cx="424" cy="376" r="8"></circle><circle cx="424" cy="344" r="8"></circle><path d="m488 128h-392v-56a8 8 0 0 0 -8-8h-32a40.045 40.045 0 0 0 -40 40v304a40.045 40.045 0 0 0 40 40h432a8 8 0 0 0 8-8v-304a8 8 0 0 0 -8-8zm-392 48h49.442l6.4 32h-55.842zm160 0a111.446 111.446 0 0 1 69.686 24.39l-21.433 23.815a79.976 79.976 0 1 0 28.2 87.374 24.078 24.078 0 0 0 18.171-15.579h17.087a112 112 0 1 1 -111.711-120zm-94.241 0h31.682l.065.329a128.73 128.73 0 0 0 -27.527 20.771zm214.241 32h72v16h-72a7.994 7.994 0 0 0 -6.944 4.037 128.583 128.583 0 0 0 -17.056-24.601v-27.436h16v24a8 8 0 0 0 8 8zm8-16v-16h64v16zm-1 112a128.756 128.756 0 0 0 0-32h65v32zm65 16v80h-64v-80zm-64-64v-16h64v16zm-16.289 24h-17.087a24.078 24.078 0 0 0 -18.17-15.579 80.416 80.416 0 0 0 -16.478-29.321l21.485-23.872a111.626 111.626 0 0 1 30.25 68.772zm.289 69.906v50.094h-16v-27.436a128.578 128.578 0 0 0 16-22.658zm-32-61.906a8 8 0 1 1 -8-8 8.009 8.009 0 0 1 8 8zm-64 0a16 16 0 1 1 -16-16 16.019 16.019 0 0 1 16 16zm-.154-27.787a31.991 31.991 0 1 0 15.141 35.787h18.389a24.131 24.131 0 0 0 11.074 13.03 64.388 64.388 0 0 1 -20.216 28.743 63.277 63.277 0 0 1 -40.234 14.227 64 64 0 0 1 0-128 63.21 63.21 0 0 1 37.506 12.146zm33.53 19.787h-18.389a31.822 31.822 0 0 0 -3.659-8.628l21.859-24.288a64.422 64.422 0 0 1 11.263 19.886 24.131 24.131 0 0 0 -11.074 13.03zm30.624-91.841a128.506 128.506 0 0 0 -18.094-12.159h18.094zm0 199.682v12.159h-18.094a128.506 128.506 0 0 0 18.094-12.159zm-240-163.841h49.183a127.241 127.241 0 0 0 -13.133 32h-36.05zm0 48h33a128.756 128.756 0 0 0 0 32h-33zm0 48h36.05a126.99 126.99 0 0 0 5.3 16h-41.35zm0 56v-24h49.183a128.976 128.976 0 0 0 44.554 45.478l.5 2.522h-118.237a8.009 8.009 0 0 1 -8-8v-8h24a8 8 0 0 0 8-8zm-64-272a24.028 24.028 0 0 1 24-24h24v288h-24a39.792 39.792 0 0 0 -24 8.019zm448 328h-424a24 24 0 0 1 -8-46.624v6.624a24.027 24.027 0 0 0 24 24h384a8 8 0 0 0 8-8v-240a8 8 0 0 0 -8-8h-360v-16h384z"></path></svg>